<svg width="246" height="40" viewBox="0 0 246 40" fill="none" xmlns="http://www.w3.org/2000/svg">
<path d="M6.5142 10.7481C5.03032 11.6013 4.2142 12.9739 4.2142 14.6136V25.3939C4.2142 27.0261 5.03032 28.3987 6.5142 29.2594C8.39129 30.3426 11.7448 30.7136 15.5361 28.5249C17.0423 27.6568 26.0568 22.4484 27.5629 21.5803C28.1119 21.2613 28.6016 20.9274 29.0542 20.5787C29.8258 21.2613 30.4639 22.0181 30.9313 22.8268C31.1613 23.22 31.3394 23.6207 31.4878 24.0287C30.9239 24.459 30.3155 24.8671 29.6774 25.2381C28.1713 26.1061 19.1568 31.3145 17.6507 32.1826C13.1768 34.7645 8.10194 35.0465 4.4071 32.9171C1.60258 31.2997 0 28.5619 0 25.4013V14.621C0 11.4603 1.60258 8.72259 4.4071 7.10517C5.88355 6.25194 7.57516 5.79194 9.36323 5.70291C8.68065 7.07549 8.19839 8.58162 7.93871 10.1694C7.40452 10.3177 6.92226 10.5181 6.5142 10.7555" fill="white"/>
<path d="M32.5042 15.6597C32.6452 15.1181 32.7119 14.6061 32.7119 14.1313C32.7119 12.4174 31.9329 11.03 30.5158 10.2064C29.351 9.53129 22.3471 5.48774 21.1748 4.82C19.7577 4.00387 18.1626 4.0187 16.6787 4.87935C14.8016 5.96258 12.8058 8.67806 12.8058 13.0629V26.9445C12.8058 27.5752 12.8503 28.1687 12.9245 28.7326C11.9452 29.059 10.9732 29.2371 10.0458 29.2371C9.59322 29.2371 9.14806 29.1926 8.73257 29.1184C8.64354 28.4136 8.59161 27.6865 8.59161 26.9445C8.59161 25.2084 8.59161 14.799 8.59161 13.0629C8.59161 7.89903 10.8842 3.35838 14.579 1.22903C17.3761 -0.388394 20.559 -0.410652 23.2894 1.16967C24.4542 1.84483 31.4581 5.88838 32.6303 6.55613C35.3681 8.13645 36.9335 10.8964 36.9335 14.1313C36.9335 15.8303 36.481 17.5294 35.6648 19.1245C34.8116 17.8484 33.7506 16.6761 32.5042 15.6597Z" fill="white"/>
<path d="M16.6861 35.1281C18.17 35.9813 19.7652 36.0036 21.1823 35.1874C22.3471 34.5123 29.351 30.4687 30.5232 29.7936C31.9403 28.9774 32.7194 27.5826 32.7194 25.8687C32.7194 23.7023 31.369 20.6158 27.5703 18.4197C26.0642 17.5516 17.0497 12.3432 15.5436 11.4752C14.9945 11.1561 14.4603 10.9039 13.9336 10.6887C14.1413 9.67968 14.4752 8.75226 14.9426 7.94355C15.1652 7.55032 15.4248 7.1942 15.7068 6.86032C16.3671 7.13484 17.02 7.45387 17.6581 7.82484C19.1642 8.69291 28.1787 13.9013 29.6849 14.7694C34.1587 17.3513 36.941 21.6026 36.941 25.8687C36.941 29.1036 35.3681 31.8636 32.6378 33.4439C31.4729 34.119 24.469 38.1626 23.3042 38.8303C20.5665 40.4107 17.391 40.3884 14.5939 38.771C13.1174 37.9178 11.871 36.6861 10.899 35.18C12.4274 35.0836 13.9781 34.7497 15.4768 34.1784C15.8774 34.5642 16.2855 34.8832 16.6936 35.1207" fill="white"/>
<path d="M187.014 12.7595C182.112 12.7595 179.67 14.3721 179.67 17.5812V22.5625C179.67 25.7716 182.112 27.3842 187.014 27.3842C188.658 27.3842 190.063 27.0489 191.101 26.3145L192.538 27.2564H194.374V17.5812C194.374 14.3721 191.915 12.7595 187.03 12.7595M190.75 21.5567C190.75 23.4885 189.505 24.4465 187.014 24.4465C184.523 24.4465 183.278 23.4885 183.278 21.5567V18.5711C183.278 16.6392 184.523 15.6813 187.014 15.6813C189.505 15.6813 190.75 16.6392 190.75 18.5711V21.5567Z" fill="white"/>
<path d="M204.608 18.4433L202.102 18.2198C200.697 18.108 200.441 17.5013 200.441 16.9904C200.441 16.272 201.112 15.6174 202.708 15.6174C204.033 15.6174 205.71 15.9367 206.652 16.6232L208.232 13.8931C206.78 12.9671 204.928 12.6797 202.772 12.6797C199.531 12.6797 196.609 14.2763 196.609 17.2299C196.609 19.8643 198.382 20.9819 201.271 21.2373L203.778 21.4609C205.039 21.5726 205.47 22.0676 205.47 22.7701C205.47 23.8398 204.033 24.2549 202.644 24.2549C200.808 24.2549 198.829 23.5843 197.487 22.339L195.891 25.1011C197.535 26.522 199.802 27.2884 202.596 27.2884C206.364 27.2884 209.366 25.7876 209.366 22.6264C209.366 20.2155 207.769 18.6988 204.624 18.4274" fill="white"/>
<path d="M215.114 22.2911V15.6972H217.333L218.993 12.8234H214.715L214.172 10.5083H211.489V23.3129C211.489 25.8834 212.687 27.1766 215.098 27.1766H218.051V24.3028H216.854C215.704 24.3028 215.114 23.6322 215.114 22.2911Z" fill="white"/>
<path d="M172.373 26.985C170.585 27.927 168.653 28.2463 167.041 27.8631C164.007 27.1447 164.183 25.0851 164.183 24.1112V15.9048C164.183 14.9309 164.007 12.8713 167.041 12.1528C168.653 11.7696 170.601 12.089 172.373 13.0309C173.698 13.7334 176.62 15.2661 176.62 15.2661L178.281 12.4562C178.281 12.4562 176.205 11.1629 174.161 9.88568C170.729 7.7303 166.849 7.50678 163.959 8.86387C159.265 11.0512 159.585 15.5535 159.585 16.6232V23.3927C159.585 24.4624 159.265 28.9648 163.959 31.1521C166.865 32.5092 170.729 32.2857 174.161 30.1303C176.205 28.853 178.281 27.5598 178.281 27.5598L176.62 24.7498C176.62 24.7498 173.698 26.2985 172.373 27.001" fill="white"/>
<path d="M229.866 12.8234C227.312 12.8553 225.396 13.3183 224.039 14.6594L223.592 12.8234H220.782V27.1766H224.406V18.3156C225.204 17.1501 226.593 16.3837 227.998 16.0804L229.882 12.8234H229.866Z" fill="white"/>
<path d="M238.104 12.6797C233.203 12.6797 230.76 14.2922 230.76 17.5013V22.4827C230.76 25.6918 233.219 27.3043 238.104 27.3043C242.99 27.3043 245.465 25.6918 245.465 22.4827V17.5013C245.465 14.2922 243.022 12.6797 238.104 12.6797ZM241.84 21.4928C241.84 23.4246 240.595 24.3826 238.104 24.3826C235.614 24.3826 234.368 23.4246 234.368 21.4928V18.5072C234.368 16.5753 235.614 15.6174 238.104 15.6174C240.595 15.6174 241.84 16.5753 241.84 18.5072V21.4928Z" fill="white"/>
<path d="M105.125 12.9511C102.571 12.983 100.655 13.446 99.298 14.7872L98.8509 12.9511H96.041V27.3043H99.6652V18.4433C100.463 17.2778 101.853 16.5115 103.257 16.2081L105.141 12.9511H105.125Z" fill="white"/>
<path d="M148.137 12.8234C143.236 12.8234 140.793 14.4359 140.793 17.6451V22.6264C140.793 25.8355 143.252 27.448 148.137 27.448C153.023 27.448 155.498 25.8355 155.498 22.6264V17.6451C155.498 14.4359 153.055 12.8234 148.137 12.8234ZM151.857 21.6365C151.857 23.5684 150.612 24.5263 148.121 24.5263C145.631 24.5263 144.385 23.5684 144.385 21.6365V18.6509C144.385 16.719 145.631 15.7611 148.121 15.7611C150.612 15.7611 151.857 16.719 151.857 18.6509V21.6365Z" fill="white"/>
<path d="M131.357 12.8234C126.456 12.8234 124.013 14.4359 124.013 17.6451V31.9983H127.637V26.5859C128.627 27.1766 129.888 27.464 131.373 27.464C136.275 27.464 138.717 25.8515 138.717 22.6423V17.661C138.717 14.4519 136.275 12.8394 131.373 12.8394L131.357 12.8234ZM135.077 21.6365C135.077 23.5684 133.832 24.5263 131.341 24.5263C128.851 24.5263 127.605 23.5684 127.605 21.6365V18.6509C127.605 16.719 128.851 15.7611 131.341 15.7611C133.832 15.7611 135.077 16.719 135.077 18.6509V21.6365Z" fill="white"/>
<path d="M88.0741 26.2825C87.5791 26.538 87.1321 26.7775 86.7808 26.9691C84.9927 27.911 83.0608 28.2304 81.4483 27.8472C78.4148 27.1287 78.5904 25.0691 78.5904 24.0952V15.8888C78.5904 14.9149 78.4148 12.8553 81.4483 12.1369C83.0608 11.7537 85.0086 12.073 86.7808 13.015C88.106 13.7175 91.0277 15.2502 91.0277 15.2502L92.6882 12.4402C92.6882 12.4402 90.6126 11.147 88.569 9.86972C85.1364 7.71434 81.2567 7.49082 78.3669 8.84791C73.673 11.0352 73.9923 15.5376 73.9923 16.6073V23.3768C73.9923 24.4465 73.673 28.9488 78.3669 31.1361C81.2727 32.4932 85.1364 32.2697 88.569 30.1143C90.6126 28.837 92.6882 27.5438 92.6882 27.5438V20.1038H88.09V26.2825H88.0741Z" fill="white"/>
<path d="M118.297 12.8234V21.6365C118.297 23.5684 117.052 24.5263 114.577 24.5263C112.103 24.5263 110.841 23.5684 110.841 21.6365V12.8234H107.233V22.6264C107.233 25.8355 109.676 27.448 114.593 27.448C116.222 27.448 117.643 27.0968 118.664 26.3783L120.101 27.3044H121.922V12.8234H118.297Z" fill="white"/>
<path d="M58.8408 22.802V19.1299C58.8408 16.751 57.0366 15.5695 53.4124 15.5695C52.3267 15.5695 51.3847 15.7771 50.6663 16.2081V12.2167H48V22.802C48 25.1649 49.8041 26.3624 53.4284 26.3624C57.0526 26.3624 58.8567 25.1809 58.8567 22.802H58.8408ZM56.1745 22.0676C56.1745 23.4885 55.2644 24.207 53.4284 24.207C51.5923 24.207 50.6822 23.4885 50.6822 22.0676V19.8643C50.6822 18.4433 51.5923 17.7249 53.4284 17.7249C55.2644 17.7249 56.1745 18.4433 56.1745 19.8643V22.0676Z" fill="white"/>
<path d="M67.2866 15.5695L65.0993 21.1416L62.8003 15.5695H60.0701L63.9338 23.9994L63.5986 24.7977C63.5028 25.0212 63.3591 25.1809 63.2154 25.3086C63.0557 25.4204 62.8801 25.4683 62.6725 25.4683C62.5608 25.4683 62.4331 25.4364 62.2894 25.3885L62.1457 25.3246L62.1137 25.4843L61.7306 27.448V27.5598L61.8264 27.5917C62.1936 27.7195 62.5448 27.7674 62.8641 27.7674C63.4868 27.7674 64.0137 27.6396 64.3968 27.4001C64.78 27.1607 65.1153 26.8094 65.3867 26.3624C65.6422 25.9313 65.8976 25.4204 66.1371 24.8616L70.0168 15.5695H67.2866Z" fill="white"/>
</svg>
