<svg width="92" height="20" viewBox="0 0 92 20" fill="none" xmlns="http://www.w3.org/2000/svg">
<path d="M89.1708 5.40224C88.2095 4.67871 87.0149 4.25154 85.7215 4.25154C84.1345 4.25154 82.6975 4.8955 81.6574 5.93551L83.2829 7.56094C83.9067 6.93711 84.7693 6.55019 85.7215 6.55019C87.6268 6.55019 89.1708 8.09421 89.1708 9.99954V10.9206C89.1361 10.8941 89.1022 10.8685 89.0665 10.8438C88.1235 10.1678 86.9691 9.76995 85.7224 9.76995C85.6474 9.76995 85.5733 9.77087 85.4983 9.77544C84.3375 9.81935 83.2637 10.2081 82.3782 10.8438C81.6785 11.3451 81.0949 11.9991 80.6805 12.7592C80.2296 13.5788 79.9744 14.5191 79.9744 15.5189H82.274C82.274 15.228 82.3096 14.9453 82.3782 14.6746C82.5721 13.8971 83.0313 13.2257 83.6533 12.7592C84.2305 12.3256 84.9467 12.0695 85.7224 12.0695C86.4981 12.0695 87.2143 12.3256 87.7914 12.7592C88.4134 13.2257 88.8717 13.8971 89.0665 14.6746C89.1351 14.9444 89.1708 15.228 89.1708 15.5189H91.4704V10.0005C91.4704 8.12074 90.5676 6.45141 89.1708 5.40316V5.40224Z" fill="white"/>
<path d="M74.7597 6.55019C75.7119 6.55019 76.5735 6.9362 77.1983 7.56094L78.8237 5.93551C77.7837 4.8955 76.3458 4.25154 74.7597 4.25154C71.5856 4.25154 69.0117 6.82552 69.0117 9.99954C69.0117 13.1736 71.5856 15.7475 74.7597 15.7475C76.3467 15.7475 77.7837 15.1036 78.8237 14.0636L77.1983 12.4381C76.5744 13.062 75.7119 13.4489 74.7597 13.4489C72.8543 13.4489 71.3103 11.9049 71.3103 9.99954C71.3103 8.09421 72.8543 6.55019 74.7597 6.55019Z" fill="white"/>
<path d="M67.2874 0H64.9879V2.29957H67.2874V0Z" fill="white"/>
<path d="M67.2874 4.48113H64.9879V15.518H67.2874V4.48113Z" fill="white"/>
<path d="M60.3887 5.40041C59.4283 4.67871 58.2337 4.25063 56.9394 4.25063C53.7645 4.25063 51.1914 6.82461 51.1914 9.99863C51.1914 13.1727 53.7654 15.7466 56.9394 15.7466C58.2337 15.7466 59.4274 15.3185 60.3887 14.5968V15.5161H62.6883V0H60.3887V5.40041ZM56.9394 13.4489C55.035 13.4489 53.4901 11.9049 53.4901 9.99954C53.4901 8.09421 55.0341 6.55019 56.9394 6.55019C58.8447 6.55019 60.3887 8.09421 60.3887 9.99954C60.3887 11.9049 58.8447 13.4489 56.9394 13.4489Z" fill="white"/>
<path d="M47.1676 10.574C47.1676 12.1619 45.8815 13.448 44.2936 13.448C42.7057 13.448 41.4196 12.1619 41.4196 10.574V4.48113H39.1201V10.5749C39.1201 12.3686 40.0329 13.9492 41.4196 14.8767C42.2419 15.4274 43.2307 15.7485 44.2936 15.7485C45.3565 15.7485 46.3462 15.4274 47.1676 14.8767C48.5543 13.9492 49.4672 12.3677 49.4672 10.5749V4.48113H47.1676V10.5749V10.574Z" fill="white"/>
<path d="M36.2461 13.4489C34.6581 13.4489 33.3721 12.1628 33.3721 10.5749V9.47542L36.9531 5.89435C36.9531 5.89435 36.9577 5.88978 36.9604 5.88795C38.0224 4.82689 38.2465 3.24445 37.6346 1.96295C37.4718 1.61811 37.2458 1.29614 36.9604 1.01075C35.9899 0.040247 34.5868 -0.230505 33.3721 0.196661C32.901 0.362223 32.4592 0.632975 32.0823 1.01075C31.41 1.68306 31.0725 2.56666 31.0725 3.44935V8.52413L27.1576 12.4391C26.0206 13.576 24.289 13.7535 22.9673 12.9714L29.3474 6.59136C29.2394 6.445 29.1233 6.30414 28.9998 6.16602C28.976 6.13949 28.9531 6.11297 28.9293 6.08735C28.8818 6.03613 28.8333 5.98491 28.783 5.93551C28.6275 5.78001 28.4656 5.63641 28.2982 5.50194C28.2424 5.45712 28.1857 5.41413 28.1281 5.37114C27.1173 4.62566 25.9181 4.25246 24.719 4.25246C23.2472 4.25246 21.7764 4.81409 20.654 5.9346C18.617 7.97164 18.4285 11.1585 20.0896 13.4096C20.2021 13.5623 20.3247 13.7096 20.4546 13.8532C20.472 13.8724 20.4885 13.8916 20.5058 13.9108C20.5543 13.963 20.6037 14.0142 20.654 14.0654C20.8095 14.2209 20.9714 14.3645 21.1388 14.499C21.1946 14.5438 21.2513 14.5868 21.3089 14.6298C23.5591 16.2918 26.7459 16.1034 28.783 14.0663L31.1877 11.6606C31.4731 12.997 32.2726 14.1432 33.3711 14.8777C34.1935 15.4283 35.1823 15.7494 36.2451 15.7494C37.0382 15.7494 37.7901 15.571 38.4615 15.2518C37.9748 14.6462 37.5879 13.9684 37.3117 13.2458C36.9815 13.3785 36.622 13.4507 36.2451 13.4507L36.2461 13.4489ZM22.2794 7.56094C22.9527 6.88772 23.8354 6.55019 24.718 6.55019C25.1397 6.55019 25.5614 6.62977 25.9602 6.78344C26.1349 6.85113 26.306 6.93163 26.4697 7.02858L21.7471 11.7512C20.965 10.4276 21.1434 8.69701 22.2794 7.56094ZM33.7087 2.63618C34.1569 2.18797 34.885 2.18797 35.3341 2.63618C35.7805 3.08438 35.7823 3.80791 35.3387 4.25703L33.3721 6.22365V3.44843C33.3721 3.1539 33.4836 2.85936 33.7087 2.63526V2.63618Z" fill="white"/>
<path d="M13.2211 9.42511V15.5189H15.5207V9.42511C15.5207 7.83718 16.8068 6.55111 18.3947 6.55111V4.25154C17.3309 4.25154 16.3421 4.5726 15.5207 5.12326C14.134 6.05077 13.2211 7.63229 13.2211 9.42511Z" fill="white"/>
<path d="M5.748 4.25154C4.45369 4.25154 3.26 4.67963 2.29865 5.40133V4.48205H0V20H2.29957V14.5996C3.26 15.3213 4.45461 15.7494 5.74891 15.7494C8.92385 15.7494 11.4969 13.1754 11.4969 10.0014C11.4969 6.82735 8.92294 4.25337 5.74891 4.25337L5.748 4.25154ZM5.748 13.4489C3.84359 13.4489 2.29865 11.9049 2.29865 9.99954C2.29865 8.09421 3.84267 6.55019 5.748 6.55019C7.65333 6.55019 9.19735 8.09421 9.19735 9.99954C9.19735 11.9049 7.65333 13.4489 5.748 13.4489Z" fill="white"/>
</svg>
