<svg xmlns="http://www.w3.org/2000/svg" width="16" height="16" viewBox="0 0 16 16"><path d="M8 0C3.58 0 0 3.58 0 8c0 1.41.37 2.74 1.02 3.89L0 16l4.2-1.01C5.3 15.64 6.62 16 8 16c4.42 0 8-3.58 8-8s-3.58-8-8-8zm4.27 11.13c-.18.5-.9.93-1.27 1-.33.06-.76.09-1.22-.08-.28-.1-.64-.24-1.1-.47-1.93-.97-3.19-2.9-3.29-3.03-.1-.14-.78-1.04-.78-1.98 0-.94.5-1.4.67-1.59.18-.19.39-.23.52-.23h.37c.12 0 .28-.05.44.34.17.4.56 1.38.61 1.48.05.1.09.21.02.34-.07.13-.1.21-.2.32-.1.11-.21.25-.3.33-.1.1-.2.2-.09.39.12.2.52.85 1.11 1.38.76.68 1.4.89 1.6.99.2.1.31.08.43-.05.11-.13.49-.57.62-.77.13-.2.26-.16.44-.1.18.07 1.13.53 1.32.63.19.1.32.14.37.22.05.08.05.44-.13.94z" fill="#5ba3d9"/></svg>
