<svg xmlns="http://www.w3.org/2000/svg" width="50" height="54" viewBox="0 0 37 40" fill="none"><path d="M6.5142 10.7481C5.03032 11.6013 4.2142 12.9739 4.2142 14.6136V25.3939C4.2142 27.0261 5.03032 28.3987 6.5142 29.2594C8.39129 30.3426 11.7448 30.7136 15.5361 28.5249C17.0423 27.6568 26.0568 22.4484 27.5629 21.5803C28.1119 21.2613 28.6016 20.9274 29.0542 20.5787C29.8258 21.2613 30.4639 22.0181 30.9313 22.8268C31.1613 23.22 31.3394 23.6207 31.4878 24.0287C30.9239 24.459 30.3155 24.8671 29.6774 25.2381C28.1713 26.1061 19.1568 31.3145 17.6507 32.1826C13.1768 34.7645 8.10194 35.0465 4.4071 32.9171C1.60258 31.2997 0 28.5619 0 25.4013V14.621C0 11.4603 1.60258 8.72259 4.4071 7.10517C5.88355 6.25194 7.57516 5.79194 9.36323 5.70291C8.68065 7.07549 8.19839 8.58162 7.93871 10.1694C7.40452 10.3177 6.92226 10.5181 6.5142 10.7555" fill="white"/><path d="M32.5042 15.6597C32.6452 15.1181 32.7119 14.6061 32.7119 14.1313C32.7119 12.4174 31.9329 11.03 30.5158 10.2064C29.351 9.53129 22.3471 5.48774 21.1748 4.82C19.7577 4.00387 18.1626 4.0187 16.6787 4.87935C14.8016 5.96258 12.8058 8.67806 12.8058 13.0629V26.9445C12.8058 27.5752 12.8503 28.1687 12.9245 28.7326C11.9452 29.059 10.9732 29.2371 10.0458 29.2371C9.59322 29.2371 9.14806 29.1926 8.73257 29.1184C8.64354 28.4136 8.59161 27.6865 8.59161 26.9445C8.59161 25.2084 8.59161 14.799 8.59161 13.0629C8.59161 7.89903 10.8842 3.35838 14.579 1.22903C17.3761 -0.388394 20.559 -0.410652 23.2894 1.16967C24.4542 1.84483 31.4581 5.88838 32.6303 6.55613C35.3681 8.13645 36.9335 10.8964 36.9335 14.1313C36.9335 15.8303 36.481 17.5294 35.6648 19.1245C34.8116 17.8484 33.7506 16.6761 32.5042 15.6597Z" fill="white"/><path d="M16.6861 35.1281C18.17 35.9813 19.7652 36.0036 21.1823 35.1874C22.3471 34.5123 29.351 30.4687 30.5232 29.7936C31.9403 28.9774 32.7194 27.5826 32.7194 25.8687C32.7194 23.7023 31.369 20.6158 27.5703 18.4197C26.0642 17.5516 17.0497 12.3432 15.5436 11.4752C14.9945 11.1561 14.4603 10.9039 13.9336 10.6887C14.1413 9.67968 14.4752 8.75226 14.9426 7.94355C15.1652 7.55032 15.4248 7.1942 15.7068 6.86032C16.3671 7.13484 17.02 7.45387 17.6581 7.82484C19.1642 8.69291 28.1787 13.9013 29.6849 14.7694C34.1587 17.3513 36.941 21.6026 36.941 25.8687C36.941 29.1036 35.3681 31.8636 32.6378 33.4439C31.4729 34.119 24.469 38.1626 23.3042 38.8303C20.5665 40.4107 17.391 40.3884 14.5939 38.771C13.1174 37.9178 11.871 36.6861 10.899 35.18C12.4274 35.0836 13.9781 34.7497 15.4768 34.1784C15.8774 34.5642 16.2855 34.8832 16.6936 35.1207" fill="white"/></svg>
